<?xml version="1.0" encoding="utf-8"?>
<svg width="180px" height="213.4126px" viewBox="0 0 180 213.4126" version="1.1" xmlns:xlink="http://www.w3.org/1999/xlink" xmlns="http://www.w3.org/2000/svg">
  <defs>
    <path d="M0 0L180 0L180 160L0 160L0 0Z" id="path_1" />
    <clipPath id="mask_1">
      <use xlink:href="#path_1" />
    </clipPath>
  </defs>
  <g id="bootstrap-logo">
    <g id="Bootstrap" transform="translate(40.951538 187.4126)">
      <path d="M2.74512 20.8203L2.74512 5.17969L8.22363 5.17969Q11.0703 5.17969 12.542 6.27002Q14.0137 7.36035 14.0137 9.46582Q14.0137 10.6152 13.4229 11.4907Q12.832 12.3662 11.7793 12.7744Q12.9824 13.0752 13.6753 13.9883Q14.3682 14.9014 14.3682 16.2227Q14.3682 18.4785 12.9287 19.6387Q11.4893 20.7988 8.8252 20.8203L2.74512 20.8203ZM45.1768 6.33984L45.1768 9.19727L47.1641 9.19727L47.1641 11.4746L45.1768 11.4746L45.1768 17.2754Q45.1768 17.9199 45.4238 18.1992Q45.6709 18.4785 46.3691 18.4785Q46.8848 18.4785 47.2822 18.4033L47.2822 20.7559Q46.3691 21.0352 45.4023 21.0352Q42.1367 21.0352 42.0723 17.7373L42.0723 11.4746L40.375 11.4746L40.375 9.19727L42.0723 9.19727L42.0723 6.33984L45.1768 6.33984ZM63.9219 6.33984L63.9219 9.19727L65.9092 9.19727L65.9092 11.4746L63.9219 11.4746L63.9219 17.2754Q63.9219 17.9199 64.1689 18.1992Q64.416 18.4785 65.1143 18.4785Q65.6299 18.4785 66.0273 18.4033L66.0273 20.7559Q65.1143 21.0352 64.1475 21.0352Q60.8818 21.0352 60.8174 17.7373L60.8174 11.4746L59.1201 11.4746L59.1201 9.19727L60.8174 9.19727L60.8174 6.33984L63.9219 6.33984ZM5.96777 11.7324L8.35254 11.7324Q10.791 11.6895 10.791 9.78809Q10.791 8.72461 10.1733 8.25732Q9.55566 7.79004 8.22363 7.79004L5.96777 7.79004L5.96777 11.7324ZM16.0977 14.9014Q16.0977 13.1719 16.7637 11.8184Q17.4297 10.4648 18.6812 9.72363Q19.9326 8.98242 21.5869 8.98242Q23.9395 8.98242 25.4272 10.4219Q26.915 11.8613 27.0869 14.332L27.1084 15.127Q27.1084 17.8018 25.6152 19.4185Q24.1221 21.0352 21.6084 21.0352Q19.0947 21.0352 17.5962 19.4238Q16.0977 17.8125 16.0977 15.041L16.0977 14.9014ZM29.2031 11.8184Q28.5371 13.1719 28.5371 14.9014L28.5371 15.041Q28.5371 17.8125 30.0356 19.4238Q31.5342 21.0352 34.0479 21.0352Q36.5615 21.0352 38.0547 19.4185Q39.5479 17.8018 39.5479 15.127L39.5264 14.332Q39.3545 11.8613 37.8667 10.4219Q36.3789 8.98242 34.0264 8.98242Q32.3721 8.98242 31.1206 9.72363Q29.8691 10.4648 29.2031 11.8184ZM54.6245 16.7114Q55.1885 17.0391 55.1885 17.6084Q55.1885 18.1563 54.7319 18.4946Q54.2754 18.833 53.3838 18.833Q52.4277 18.833 51.8584 18.3926Q51.2891 17.9521 51.2461 17.125L48.3027 17.125Q48.3027 18.1777 48.9473 19.0854Q49.5918 19.9932 50.7251 20.5142Q51.8584 21.0352 53.3193 21.0352Q55.4785 21.0352 56.8428 20.0522Q58.207 19.0693 58.207 17.4795Q58.207 15.2559 55.7471 14.3535Q54.9521 14.0635 53.792 13.8325Q52.6318 13.6016 52.1431 13.2847Q51.6543 12.9678 51.6543 12.4521Q51.6543 11.9043 52.084 11.5498Q52.5137 11.1953 53.2979 11.1953Q54.2109 11.1953 54.6406 11.6304Q55.0703 12.0654 55.0703 12.7314L58.1748 12.7314Q58.1748 11.0664 56.8481 10.0244Q55.5215 8.98242 53.3086 8.98242Q51.2354 8.98242 49.9517 10.019Q48.668 11.0557 48.668 12.6025Q48.668 15.2559 52.8145 16.126Q54.0605 16.3838 54.6245 16.7114ZM73.0527 12.0225Q73.5361 12.0225 74.1699 12.1084L74.2129 9.12207Q73.7617 8.98242 73.2461 8.98242Q71.5918 8.98242 70.6572 10.583L70.5713 9.19727L67.6387 9.19727L67.6387 20.8203L70.7432 20.8203L70.7432 13.2148Q71.291 12.0225 73.0527 12.0225ZM82.3984 20.8203Q82.1836 20.4014 82.0869 19.7783Q80.959 21.0352 79.1543 21.0352Q77.4463 21.0352 76.3237 20.0469Q75.2012 19.0586 75.2012 17.5547Q75.2012 15.707 76.5708 14.7188Q77.9404 13.7305 80.5293 13.7197L81.958 13.7197L81.958 13.0537Q81.958 12.248 81.5444 11.7646Q81.1309 11.2813 80.2393 11.2813Q79.4551 11.2813 79.0093 11.6572Q78.5635 12.0332 78.5635 12.6885L75.459 12.6885Q75.459 11.6787 76.082 10.8193Q76.7051 9.95996 77.8438 9.47119Q78.9824 8.98242 80.4004 8.98242Q82.5488 8.98242 83.811 10.062Q85.0732 11.1416 85.0732 13.0967L85.0732 18.1348Q85.084 19.7891 85.5352 20.6377L85.5352 20.8203L82.3984 20.8203ZM96.7017 19.4185Q97.9209 17.8018 97.9209 15.1162L97.9209 14.9551Q97.9209 12.1621 96.7285 10.5723Q95.5361 8.98242 93.3877 8.98242Q91.5723 8.98242 90.4443 10.3359L90.3369 9.19727L87.458 9.19727L87.458 25.2891L90.5625 25.2891L90.5625 19.8105Q91.6475 21.0352 93.4092 21.0352Q95.4824 21.0352 96.7017 19.4185ZM19.2021 15.1217Q19.2021 16.7786 19.8252 17.6554Q20.4482 18.5322 21.6084 18.5322Q22.7363 18.5322 23.3701 17.6661Q24.0039 16.8 24.0039 14.8958Q24.0039 13.2712 23.3701 12.3783Q22.7363 11.4854 21.5869 11.4854Q20.4482 11.4854 19.8252 12.3729Q19.2021 13.2605 19.2021 15.1217ZM32.2646 17.6554Q31.6416 16.7786 31.6416 15.1217Q31.6416 13.2605 32.2646 12.3729Q32.8877 11.4854 34.0264 11.4854Q35.1758 11.4854 35.8096 12.3783Q36.4434 13.2712 36.4434 14.8958Q36.4434 16.8 35.8096 17.6661Q35.1758 18.5322 34.0479 18.5322Q32.8877 18.5322 32.2646 17.6554ZM94.2417 12.3877Q94.8164 13.2686 94.8164 14.8906Q94.8164 18.5322 92.5928 18.5322Q91.1318 18.5322 90.5625 17.3828L90.5625 12.624Q91.1104 11.5068 92.5713 11.5068Q93.667 11.5068 94.2417 12.3877ZM5.96777 14.0098L5.96777 18.2314L8.72852 18.2314Q9.86719 18.2314 10.5063 17.689Q11.1455 17.1465 11.1455 16.1904Q11.1455 14.042 8.92188 14.0098L5.96777 14.0098ZM79.8311 18.6611Q80.5186 18.6611 81.0986 18.355Q81.6787 18.0488 81.958 17.5332L81.958 15.5352L80.7979 15.5352Q78.4668 15.5352 78.3164 17.1465L78.3057 17.3291Q78.3057 17.9092 78.7139 18.2852Q79.1221 18.6611 79.8311 18.6611Z" />
    </g>
    <path d="M0 0L180 0L180 160L0 160L0 0Z" id="Background" fill="none" fill-rule="evenodd" stroke="none" />
    <g clip-path="url(#mask_1)">
      <path d="M104.219 62.9375C104.219 56.0313 99.3439 52.2188 90.7814 52.2188L75.0314 52.2188L75.0314 74.4688L88.3126 74.4688C98.5626 74.4375 104.219 70.3125 104.219 62.9375L104.219 62.9375ZM161.562 58.9375C158.594 49.2813 158.156 37.4375 158.5 28.2813C158.844 18.75 151.406 10 141.406 10L38.6562 10C28.625 10 21.2187 18.7813 21.5625 28.2813C21.875 37.4375 21.4687 49.2813 18.5 58.9375C15.5 68.625 10.4687 74.75 2.1875 75.5313L2.1875 84.4375C10.4375 85.2188 15.5 91.3438 18.5 101.031C21.4687 110.688 21.9062 122.531 21.5625 131.688C21.2187 141.219 28.6562 149.969 38.6562 149.969L141.375 149.969C151.406 149.969 158.812 141.188 158.469 131.688C158.156 122.531 158.562 110.688 161.531 101.031C164.531 91.3438 169.563 85.2188 177.812 84.4375L177.812 75.5313C169.594 74.75 164.531 68.625 161.562 58.9375L161.562 58.9375ZM93.8126 117.219L63.2189 117.219L63.2189 42.75L93.6564 42.75C107.188 42.75 116.063 50.0625 116.063 61.3125C116.063 69.2188 110.094 76.2813 102.469 77.5L102.469 77.9063C112.844 79.0313 119.813 86.2188 119.813 96.125C119.813 109.281 110.031 117.219 93.8126 117.219L93.8126 117.219ZM90.6876 83.25L75.0314 83.25L75.0314 107.75L91.3751 107.75C102.063 107.75 107.719 103.469 107.719 95.4063C107.719 87.375 101.906 83.25 90.6876 83.25L90.6876 83.25Z" id="Shape" fill="#005581" fill-rule="evenodd" stroke="none" />
    </g>
  </g>
</svg>