<?xml version="1.0" encoding="utf-8"?>
<svg width="200px" height="214px" viewBox="0 0 200 214" version="1.1" xmlns:xlink="http://www.w3.org/1999/xlink" xmlns="http://www.w3.org/2000/svg">
  <defs>
    <path d="M0 0L200 0L200 200L0 200L0 0Z" id="path_1" />
    <clipPath id="mask_1">
      <use xlink:href="#path_1" />
    </clipPath>
  </defs>
  <g id="css-logo">
    <g id="CSS" transform="translate(50.611572 188)">
      <path d="M42.9531 15.6104Q42.7705 18.1348 41.0894 19.585Q39.4082 21.0352 36.6582 21.0352Q33.6504 21.0352 31.9263 19.0103Q30.2021 16.9854 30.2021 13.4512L30.2021 12.4951Q30.2021 10.2393 30.9971 8.52051Q31.792 6.80176 33.269 5.8833Q34.7461 4.96484 36.7012 4.96484Q39.4082 4.96484 41.0625 6.41504Q42.7168 7.86523 42.9746 10.4863L39.752 10.4863Q39.6338 8.97168 38.9087 8.28955Q38.1836 7.60742 36.7012 7.60742Q35.0898 7.60742 34.2896 8.76221Q33.4893 9.91699 33.4678 12.3447L33.4678 13.5264Q33.4678 16.0615 34.2358 17.2324Q35.0039 18.4033 36.6582 18.4033Q38.1514 18.4033 38.8872 17.7212Q39.623 17.0391 39.7305 15.6104L42.9531 15.6104ZM53.1797 16.7168Q53.1797 15.8037 52.5352 15.3149Q51.8906 14.8262 50.2148 14.2837Q48.5391 13.7412 47.5615 13.2148Q44.8975 11.7754 44.8975 9.33691Q44.8975 8.06934 45.6118 7.07568Q46.3262 6.08203 47.6636 5.52344Q49.001 4.96484 50.666 4.96484Q52.3418 4.96484 53.6523 5.57178Q54.9629 6.17871 55.688 7.28516Q56.4131 8.3916 56.4131 9.79883L53.1904 9.79883Q53.1904 8.72461 52.5137 8.12842Q51.8369 7.53223 50.6123 7.53223Q49.4307 7.53223 48.7754 8.03174Q48.1201 8.53125 48.1201 9.34766Q48.1201 10.1104 48.8882 10.626Q49.6563 11.1416 51.1494 11.5928Q53.8994 12.4199 55.1563 13.6445Q56.4131 14.8691 56.4131 16.6953Q56.4131 18.7256 54.877 19.8804Q53.3408 21.0352 50.7412 21.0352Q48.9365 21.0352 47.4541 20.3745Q45.9717 19.7139 45.1929 18.5645Q44.4141 17.415 44.4141 15.9004L47.6475 15.9004Q47.6475 18.4893 50.7412 18.4893Q51.8906 18.4893 52.5352 18.022Q53.1797 17.5547 53.1797 16.7168ZM66.0596 15.3149Q66.7041 15.8037 66.7041 16.7168Q66.7041 17.5547 66.0596 18.022Q65.415 18.4893 64.2656 18.4893Q61.1719 18.4893 61.1719 15.9004L57.9385 15.9004Q57.9385 17.415 58.7173 18.5645Q59.4961 19.7139 60.9785 20.3745Q62.4609 21.0352 64.2656 21.0352Q66.8652 21.0352 68.4014 19.8804Q69.9375 18.7256 69.9375 16.6953Q69.9375 14.8691 68.6807 13.6445Q67.4238 12.4199 64.6738 11.5928Q63.1807 11.1416 62.4126 10.626Q61.6445 10.1104 61.6445 9.34766Q61.6445 8.53125 62.2998 8.03174Q62.9551 7.53223 64.1367 7.53223Q65.3613 7.53223 66.0381 8.12842Q66.7148 8.72461 66.7148 9.79883L69.9375 9.79883Q69.9375 8.3916 69.2124 7.28516Q68.4873 6.17871 67.1768 5.57178Q65.8662 4.96484 64.1904 4.96484Q62.5254 4.96484 61.188 5.52344Q59.8506 6.08203 59.1362 7.07568Q58.4219 8.06934 58.4219 9.33691Q58.4219 11.7754 61.0859 13.2148Q62.0635 13.7412 63.7393 14.2837Q65.415 14.8262 66.0596 15.3149Z" />
    </g>
    <path d="M0 0L200 0L200 200L0 200L0 0Z" id="Background" fill="none" fill-rule="evenodd" stroke="none" />
    <g clip-path="url(#mask_1)">
      <g id="Group" transform="translate(26.66455 0)">
        <path d="M145.81 1.10046C145.177 0.399571 144.276 0 143.337 0L3.33656 0C2.39013 0 1.49616 0.399543 0.863358 1.10046C0.229414 1.79354 -0.0763855 2.72657 0.0162724 3.66631L13.35 137.001C13.4761 138.301 14.3634 139.414 15.61 139.828L75.61 159.828C75.9505 159.947 76.3098 160.001 76.6636 160.001C77.0632 160.001 77.4571 159.927 77.8433 159.787L131.178 139.787C132.364 139.348 133.198 138.261 133.324 137.001L146.658 3.6663C146.75 2.73327 146.444 1.79353 145.81 1.10045L145.81 1.10046ZM126.883 134.275L76.5977 153.135L19.7634 134.189L7.01001 6.66895L139.641 6.66895L126.883 134.275Z" id="Shape" fill="#005581" fill-rule="evenodd" stroke="none" />
        <path d="M36.6612 40.0057L112.696 40.0057L108.062 66.6654L39.9958 66.6654C38.1554 66.6654 36.6621 68.1588 36.6621 69.9992C36.6621 71.8396 38.1554 73.3329 39.9958 73.3329L106.902 73.3329L100.368 110.887L76.5947 119.8L49.5478 110.78L46.5947 96.0132C46.2409 94.2129 44.5009 93.0332 42.6749 93.3993C40.8747 93.7598 39.7018 95.5132 40.0611 97.319L43.3948 113.985C43.6281 115.158 44.4752 116.111 45.608 116.492L75.608 126.492C75.9495 126.614 76.3089 126.666 76.6627 126.666C77.0622 126.666 77.4562 126.592 77.8357 126.46L104.502 116.46C105.609 116.04 106.415 115.073 106.616 113.906L119.95 37.2404C120.116 36.2738 119.849 35.2805 119.216 34.5272C118.583 33.7738 117.643 33.3408 116.663 33.3408L36.6627 33.3408C34.8223 33.3408 33.329 34.8341 33.329 36.6745C33.329 38.5138 34.8223 40.0071 36.6627 40.0071L36.6612 40.0057Z" id="Shape" fill="#005581" fill-rule="evenodd" stroke="none" />
      </g>
    </g>
  </g>
</svg>