<?xml version="1.0" encoding="utf-8"?>
<svg width="200px" height="228px" viewBox="0 0 200 228" version="1.1" xmlns:xlink="http://www.w3.org/1999/xlink" xmlns="http://www.w3.org/2000/svg">
  <defs>
    <path d="M0 0L200 0L200 160L0 160L0 0Z" id="path_1" />
    <clipPath id="mask_1">
      <use xlink:href="#path_1" />
    </clipPath>
  </defs>
  <g id="docker-logo">
    <g id="Docker" transform="translate(34 202)">
      <path d="M57.5679 17.2754L58.6851 16.1582L61.6714 20.8203L65.2378 20.8203L60.6724 14.042L64.8726 9.19727L61.145 9.19727L58.1694 12.6885L57.5679 13.4619L57.5679 4.32031L54.4634 4.32031L54.4634 20.8203L57.5679 20.8203L57.5679 17.2754ZM16.4575 5.17969L16.4575 20.8203L21.3022 20.8203Q23.354 20.8096 24.9868 19.875Q26.6196 18.9404 27.5166 17.2432Q28.4136 15.5459 28.4136 13.3652L28.4136 12.6455Q28.4136 10.4648 27.5005 8.75146Q26.5874 7.03809 24.96 6.10889Q23.3325 5.17969 21.27 5.17969L16.4575 5.17969ZM19.6802 18.2314L19.6802 7.79004L21.27 7.79004Q23.1714 7.79004 24.1597 9.02002Q25.1479 10.25 25.1479 12.6348L25.1479 13.4619Q25.1265 15.7607 24.1274 16.9961Q23.1284 18.2314 21.2378 18.2314L19.6802 18.2314ZM30.7339 11.8184Q30.0679 13.1719 30.0679 14.9014L30.0679 15.041Q30.0679 17.8125 31.5664 19.4238Q33.0649 21.0352 35.5786 21.0352Q38.0923 21.0352 39.5854 19.4185Q41.0786 17.8018 41.0786 15.127L41.0571 14.332Q40.8853 11.8613 39.3975 10.4219Q37.9097 8.98242 35.5571 8.98242Q33.9028 8.98242 32.6514 9.72363Q31.3999 10.4648 30.7339 11.8184ZM47.8247 18.5322Q48.6841 18.5322 49.2212 18.0596Q49.7583 17.5869 49.7798 16.8027L52.6909 16.8027Q52.6802 17.9844 52.0464 18.9673Q51.4126 19.9502 50.3115 20.4927Q49.2104 21.0352 47.8784 21.0352Q45.3862 21.0352 43.9468 19.4507Q42.5073 17.8662 42.5073 15.0732L42.5073 14.8691Q42.5073 12.1836 43.936 10.583Q45.3647 8.98242 47.8569 8.98242Q50.0376 8.98242 51.3535 10.2231Q52.6694 11.4639 52.6909 13.5264L49.7798 13.5264Q49.7583 12.6193 49.2212 12.0523Q48.6841 11.4854 47.8032 11.4854Q46.7183 11.4854 46.165 12.2761Q45.6118 13.0668 45.6118 14.8419L45.6118 15.1647Q45.6118 16.9615 46.1597 17.7469Q46.7075 18.5322 47.8247 18.5322ZM71.5649 21.0352Q69.0083 21.0352 67.4023 19.4668Q65.7964 17.8984 65.7964 15.2881L65.7964 14.9873Q65.7964 13.2363 66.4731 11.856Q67.1499 10.4756 68.3906 9.729Q69.6313 8.98242 71.2212 8.98242Q73.606 8.98242 74.9756 10.4863Q76.3452 11.9902 76.3452 14.751L76.3452 16.0186L68.9438 16.0186Q69.0942 17.1572 69.8516 17.8447Q70.6089 18.5322 71.769 18.5322Q73.563 18.5322 74.5728 17.2324L76.0981 18.9404Q75.3999 19.9287 74.2075 20.4819Q73.0151 21.0352 71.5649 21.0352ZM83.521 12.0225Q84.0044 12.0225 84.6382 12.1084L84.6812 9.12207Q84.23 8.98242 83.7144 8.98242Q82.0601 8.98242 81.1255 10.583L81.0396 9.19727L78.1069 9.19727L78.1069 20.8203L81.2114 20.8203L81.2114 13.2148Q81.7593 12.0225 83.521 12.0225ZM33.7954 17.6554Q33.1724 16.7786 33.1724 15.1217Q33.1724 13.2605 33.7954 12.3729Q34.4185 11.4854 35.5571 11.4854Q36.7065 11.4854 37.3403 12.3783Q37.9741 13.2712 37.9741 14.8958Q37.9741 16.8 37.3403 17.6661Q36.7065 18.5322 35.5786 18.5322Q34.4185 18.5322 33.7954 17.6554ZM71.2104 11.4854Q70.2866 11.4854 69.7119 12.1112Q69.1372 12.737 68.9761 13.9023L73.2944 13.9023L73.2944 13.6541Q73.2729 12.6183 72.7358 12.0518Q72.1987 11.4854 71.2104 11.4854Z" />
    </g>
    <path d="M0 0L200 0L200 160L0 160L0 0Z" id="Background" fill="none" fill-rule="evenodd" stroke="none" />
    <g clip-path="url(#mask_1)">
      <path d="M109.344 73.8438L88.6875 73.8438L88.6875 55.2813L109.344 55.2813L109.344 73.8438L109.344 73.8438ZM109.344 10L88.6875 10L88.6875 28.9687L109.344 28.9687L109.344 10L109.344 10ZM133.781 55.25L113.125 55.25L113.125 73.8125L133.781 73.8125L133.781 55.25L133.781 55.25ZM84.9374 32.7188L64.2811 32.7188L64.2811 51.5L84.9374 51.5L84.9374 32.7188L84.9374 32.7188ZM109.344 32.7188L88.6875 32.7188L88.6875 51.5L109.344 51.5L109.344 32.7188L109.344 32.7188ZM195.844 63.9688C191.344 60.9375 180.969 59.8438 173 61.3438C171.969 53.8438 167.781 47.3125 160.156 41.4375L155.781 38.5313L152.875 42.9063C147.125 51.5938 145.562 65.9063 151.719 75.3438C149 76.8125 143.656 78.8125 136.594 78.6875L0.74995 78.6875C-1.9688 94.5625 2.56245 115.188 14.4999 129.344C26.0937 143.063 43.4687 150.031 66.1874 150.031C115.375 150.031 151.781 127.375 168.812 86.2188C175.5 86.3438 189.937 86.25 197.344 72.0938C197.812 71.3125 199.406 67.9688 200 66.75L195.844 63.9688L195.844 63.9688ZM36.1249 55.25L15.4999 55.25L15.4999 73.8125L36.1561 73.8125L36.1561 55.25L36.1249 55.25ZM60.5311 55.25L39.8749 55.25L39.8749 73.8125L60.5311 73.8125L60.5311 55.25L60.5311 55.25ZM84.9374 55.25L64.2811 55.25L64.2811 73.8125L84.9374 73.8125L84.9374 55.25L84.9374 55.25ZM60.5311 32.7188L39.8749 32.7188L39.8749 51.5L60.5311 51.5L60.5311 32.7188L60.5311 32.7188Z" id="Shape" fill="#005581" fill-rule="evenodd" stroke="none" />
    </g>
  </g>
</svg>