<?xml version="1.0" encoding="utf-8"?>
<svg width="200px" height="213px" viewBox="0 0 200 213" version="1.1" xmlns:xlink="http://www.w3.org/1999/xlink" xmlns="http://www.w3.org/2000/svg">
  <defs>
    <path d="M0 0L200 0L200 200L0 200L0 0Z" id="path_1" />
    <clipPath id="mask_1">
      <use xlink:href="#path_1" />
    </clipPath>
  </defs>
  <g id="html-logo">
    <g id="HTML" transform="translate(49.69507 187)">
      <path d="M30.7339 20.8203L33.9565 20.8203L33.9565 5.17969L30.7339 5.17969L30.7339 11.5176L24.4497 11.5176L24.4497 5.17969L21.2271 5.17969L21.2271 20.8203L24.4497 20.8203L24.4497 14.1172L30.7339 14.1172L30.7339 20.8203ZM43.7534 7.79004L48.5444 7.79004L48.5444 5.17969L35.8042 5.17969L35.8042 7.79004L40.5308 7.79004L40.5308 20.8203L43.7534 20.8203L43.7534 7.79004ZM54.5923 5.17969L58.6099 16.5234L62.606 5.17969L66.8384 5.17969L66.8384 20.8203L63.605 20.8203L63.605 16.5449L63.9272 9.16504L59.7056 20.8203L57.4927 20.8203L53.2817 9.17578L53.604 16.5449L53.604 20.8203L50.3813 20.8203L50.3813 5.17969L54.5923 5.17969ZM79.7183 18.2314L72.8755 18.2314L72.8755 5.17969L69.6528 5.17969L69.6528 20.8203L79.7183 20.8203L79.7183 18.2314Z" />
    </g>
    <path d="M0 0L200 0L200 200L0 200L0 0Z" id="Background" fill="none" fill-rule="evenodd" stroke="none" />
    <g clip-path="url(#mask_1)">
      <g id="Group" transform="translate(26.66455 0)">
        <path d="M145.81 1.10046C145.177 0.399571 144.276 0 143.337 0L3.33656 0C2.39013 0 1.49616 0.399543 0.863358 1.10046C0.229414 1.79354 -0.0763855 2.72657 0.0162724 3.66631L13.35 137.001C13.4761 138.301 14.3634 139.414 15.61 139.828L75.61 159.828C75.9505 159.947 76.3098 160.001 76.6636 160.001C77.0632 160.001 77.4571 159.927 77.8433 159.787L131.178 139.787C132.364 139.348 133.198 138.261 133.324 137.001L146.658 3.6663C146.75 2.73327 146.444 1.79353 145.81 1.10045L145.81 1.10046ZM126.883 134.275L76.5977 153.135L19.7634 134.189L7.01001 6.66895L139.641 6.66895L126.883 134.275Z" id="Shape" fill="#005581" fill-rule="evenodd" stroke="none" />
        <path d="M39.9955 73.3342L106.11 73.3342L100.33 110.9L76.5966 119.799L49.5498 110.779L46.5966 96.0125C46.2362 94.2122 44.4895 93.0325 42.6769 93.3986C40.8767 93.7591 39.7038 95.5125 40.0631 97.3183L43.3968 113.985C43.6301 115.158 44.4772 116.111 45.61 116.491L75.61 126.491C75.9504 126.613 76.3098 126.665 76.6636 126.665C77.0631 126.665 77.4571 126.592 77.8366 126.452L104.503 116.452C105.629 116.033 106.443 115.033 106.623 113.838L113.29 70.5041C113.436 69.5376 113.157 68.5644 112.523 67.8244C111.897 67.0856 110.969 66.6648 109.996 66.6648L43.0161 66.6648L40.3498 39.9986L116.664 39.9986C118.505 39.9986 119.998 38.5052 119.998 36.6648C119.997 34.8256 118.503 33.3323 116.664 33.3323L36.6641 33.3323C35.7166 33.3323 34.8237 33.7318 34.1909 34.4316C33.557 35.1247 33.2501 36.0588 33.3438 36.9986L36.6776 70.3329C36.8506 72.0327 38.2836 73.3329 39.9967 73.3329L39.9955 73.3342Z" id="Shape" fill="#005581" fill-rule="evenodd" stroke="none" />
      </g>
    </g>
  </g>
</svg>