<?xml version="1.0" encoding="utf-8"?>
<svg width="200px" height="213.99976px" viewBox="0 0 200 213.99976" version="1.1" xmlns:xlink="http://www.w3.org/1999/xlink" xmlns="http://www.w3.org/2000/svg">
  <defs>
    <path d="M0 0L200 0L200 200L0 200L0 0Z" id="path_1" />
    <clipPath id="mask_1">
      <use xlink:href="#path_1" />
    </clipPath>
  </defs>
  <g id="js-logo">
    <g id="JavaScript" transform="translate(42.30005 187.99976)">
      <path d="M89.3213 5.04004Q88.854 5.49121 88.854 6.18945Q88.854 6.89844 89.332 7.34961Q89.8101 7.80078 90.5942 7.80078Q91.3784 7.80078 91.8564 7.34961Q92.3345 6.89844 92.3345 6.18945Q92.3345 5.49121 91.8618 5.04004Q91.3892 4.58887 90.5942 4.58887Q89.7886 4.58887 89.3213 5.04004ZM64.1685 16.7168Q64.1685 15.8037 63.5239 15.3149Q62.8794 14.8262 61.2036 14.2837Q59.5278 13.7412 58.5503 13.2148Q55.8862 11.7754 55.8862 9.33691Q55.8862 8.06934 56.6006 7.07568Q57.3149 6.08203 58.6523 5.52344Q59.9897 4.96484 61.6548 4.96484Q63.3306 4.96484 64.6411 5.57178Q65.9517 6.17871 66.6768 7.28516Q67.4019 8.3916 67.4019 9.79883L64.1792 9.79883Q64.1792 8.72461 63.5024 8.12842Q62.8257 7.53223 61.6011 7.53223Q60.4194 7.53223 59.7642 8.03174Q59.1089 8.53125 59.1089 9.34766Q59.1089 10.1104 59.877 10.626Q60.645 11.1416 62.1382 11.5928Q64.8882 12.4199 66.145 13.6445Q67.4019 14.8691 67.4019 16.6953Q67.4019 18.7256 65.8657 19.8804Q64.3296 21.0352 61.73 21.0352Q59.9253 21.0352 58.4429 20.3745Q56.9604 19.7139 56.1816 18.5645Q55.4028 17.415 55.4028 15.9004L58.6362 15.9004Q58.6362 18.4893 61.73 18.4893Q62.8794 18.4893 63.5239 18.022Q64.1685 17.5547 64.1685 16.7168ZM18.5894 5.17969L15.3667 5.17969L15.3667 16.0078Q15.3667 17.1787 14.8188 17.8125Q14.271 18.4463 13.3472 18.4463Q12.3052 18.4463 11.8218 17.8984Q11.3384 17.3506 11.3384 16.2012L8.09424 16.2012Q8.09424 18.5107 9.47998 19.7729Q10.8657 21.0352 13.3472 21.0352Q14.8618 21.0352 16.0649 20.4121Q17.2681 19.7891 17.9287 18.645Q18.5894 17.501 18.5894 16.0078L18.5894 5.17969ZM110.811 9.19727L110.811 6.33984L107.707 6.33984L107.707 9.19727L106.009 9.19727L106.009 11.4746L107.707 11.4746L107.707 17.7373Q107.771 21.0352 111.037 21.0352Q112.003 21.0352 112.917 20.7559L112.917 18.4033Q112.519 18.4785 112.003 18.4785Q111.305 18.4785 111.058 18.1992Q110.811 17.9199 110.811 17.2754L110.811 11.4746L112.798 11.4746L112.798 9.19727L110.811 9.19727ZM27.5698 19.7783Q27.6665 20.4014 27.8813 20.8203L31.0181 20.8203L31.0181 20.6377Q30.5669 19.7891 30.5562 18.1348L30.5562 13.0967Q30.5562 11.1416 29.2939 10.062Q28.0317 8.98242 25.8833 8.98242Q24.4653 8.98242 23.3267 9.47119Q22.188 9.95996 21.5649 10.8193Q20.9419 11.6787 20.9419 12.6885L24.0464 12.6885Q24.0464 12.0332 24.4922 11.6572Q24.938 11.2813 25.7222 11.2813Q26.6138 11.2813 27.0273 11.7646Q27.4409 12.248 27.4409 13.0537L27.4409 13.7197L26.0122 13.7197Q23.4233 13.7305 22.0537 14.7188Q20.6841 15.707 20.6841 17.5547Q20.6841 19.0586 21.8066 20.0469Q22.9292 21.0352 24.6372 21.0352Q26.4419 21.0352 27.5698 19.7783ZM50.4829 19.7783Q50.5796 20.4014 50.7944 20.8203L53.9312 20.8203L53.9312 20.6377Q53.48 19.7891 53.4692 18.1348L53.4692 13.0967Q53.4692 11.1416 52.207 10.062Q50.9448 8.98242 48.7964 8.98242Q47.3784 8.98242 46.2397 9.47119Q45.1011 9.95996 44.478 10.8193Q43.855 11.6787 43.855 12.6885L46.9595 12.6885Q46.9595 12.0332 47.4053 11.6572Q47.8511 11.2813 48.6353 11.2813Q49.5269 11.2813 49.9404 11.7646Q50.354 12.248 50.354 13.0537L50.354 13.7197L48.9253 13.7197Q46.3364 13.7305 44.9668 14.7188Q43.5972 15.707 43.5972 17.5547Q43.5972 19.0586 44.7197 20.0469Q45.8423 21.0352 47.5503 21.0352Q49.355 21.0352 50.4829 19.7783ZM75.6089 18.0596Q75.0718 18.5322 74.2124 18.5322Q73.0952 18.5322 72.5474 17.7469Q71.9995 16.9615 71.9995 15.1647L71.9995 14.8419Q71.9995 13.0668 72.5527 12.2761Q73.106 11.4854 74.1909 11.4854Q75.0718 11.4854 75.6089 12.0523Q76.146 12.6193 76.1675 13.5264L79.0786 13.5264Q79.0571 11.4639 77.7412 10.2231Q76.4253 8.98242 74.2446 8.98242Q71.7524 8.98242 70.3237 10.583Q68.895 12.1836 68.895 14.8691L68.895 15.0732Q68.895 17.8662 70.3345 19.4507Q71.7739 21.0352 74.2661 21.0352Q75.5981 21.0352 76.6992 20.4927Q77.8003 19.9502 78.4341 18.9673Q79.0679 17.9844 79.0786 16.8027L76.1675 16.8027Q76.146 17.5869 75.6089 18.0596ZM87.3823 12.1084Q86.7485 12.0225 86.2651 12.0225Q84.5034 12.0225 83.9556 13.2148L83.9556 20.8203L80.8511 20.8203L80.8511 9.19727L83.7837 9.19727L83.8696 10.583Q84.8042 8.98242 86.4585 8.98242Q86.9741 8.98242 87.4253 9.12207L87.3823 12.1084ZM105.171 15.1162Q105.171 17.8018 103.952 19.4185Q102.733 21.0352 100.66 21.0352Q98.8979 21.0352 97.813 19.8105L97.813 25.2891L94.7085 25.2891L94.7085 9.19727L97.5874 9.19727L97.6948 10.3359Q98.8228 8.98242 100.638 8.98242Q102.787 8.98242 103.979 10.5723Q105.171 12.1621 105.171 14.9551L105.171 15.1162ZM37.2915 17.0283L39.4507 9.19727L42.6948 9.19727L38.7739 20.8203L35.8091 20.8203L31.8882 9.19727L35.1323 9.19727L37.2915 17.0283ZM89.0366 9.19727L89.0366 20.8203L92.1519 20.8203L92.1519 9.19727L89.0366 9.19727ZM102.067 14.8906Q102.067 13.2686 101.492 12.3877Q100.917 11.5068 99.8218 11.5068Q98.3608 11.5068 97.813 12.624L97.813 17.3828Q98.3823 18.5322 99.8433 18.5322Q102.067 18.5322 102.067 14.8906ZM26.5815 18.355Q26.0015 18.6611 25.314 18.6611Q24.605 18.6611 24.1968 18.2852Q23.7886 17.9092 23.7886 17.3291L23.7993 17.1465Q23.9497 15.5352 26.2808 15.5352L27.4409 15.5352L27.4409 17.5332Q27.1616 18.0488 26.5815 18.355ZM49.4946 18.355Q48.9146 18.6611 48.2271 18.6611Q47.5181 18.6611 47.1099 18.2852Q46.7017 17.9092 46.7017 17.3291L46.7124 17.1465Q46.8628 15.5352 49.1938 15.5352L50.354 15.5352L50.354 17.5332Q50.0747 18.0488 49.4946 18.355Z" />
    </g>
    <path d="M0 0L200 0L200 200L0 200L0 0Z" id="Background" fill="none" fill-rule="evenodd" stroke="none" />
    <g clip-path="url(#mask_1)">
      <g id="Group" transform="translate(26.66455 0)">
        <path d="M145.81 1.10046C145.177 0.399571 144.276 0 143.337 0L3.33656 0C2.39013 0 1.49616 0.399543 0.863358 1.10046C0.229414 1.79354 -0.0763855 2.72657 0.0162724 3.66631L13.35 137.001C13.4761 138.301 14.3634 139.414 15.61 139.828L75.61 159.828C75.9505 159.947 76.3098 160.001 76.6636 160.001C77.0632 160.001 77.4571 159.927 77.8433 159.787L131.178 139.787C132.364 139.348 133.198 138.261 133.324 137.001L146.658 3.6663C146.75 2.73327 146.444 1.79353 145.81 1.10045L145.81 1.10046ZM126.883 134.275L76.5977 153.135L19.7634 134.189L7.01001 6.66895L139.641 6.66895L126.883 134.275Z" id="Shape" fill="#005581" fill-rule="evenodd" stroke="none" />
        <path d="M83.3298 80L106.003 80L100.402 110.794L82.2761 116.841C80.5294 117.421 79.5897 119.308 80.1689 121.054C80.6355 122.454 81.9357 123.334 83.3287 123.334C83.6757 123.334 84.0284 123.281 84.3889 123.168L104.389 116.502C105.542 116.116 106.396 115.135 106.609 113.935L113.275 77.2691C113.455 76.2959 113.188 75.2959 112.555 74.5359C111.924 73.7747 110.983 73.335 109.996 73.335L86.6623 73.335L86.6635 40.0007L112.39 40.0007L110.097 49.1938C109.65 50.9807 110.736 52.7876 112.523 53.2341C114.29 53.6739 116.117 52.5946 116.563 50.8078L119.897 37.4741C120.144 36.4741 119.924 35.4205 119.29 34.6135C118.657 33.8077 117.69 33.3345 116.664 33.3345L83.3293 33.3345C81.4889 33.3345 79.9956 34.8278 79.9956 36.6682L79.9956 76.6682C79.9956 78.5075 81.4889 80.0008 83.3293 80.0008L83.3298 80Z" id="Shape" fill="#005581" fill-rule="evenodd" stroke="none" />
        <path d="M29.9897 40L66.6555 40L66.6555 115.58L49.5295 110.687L46.5963 96.0143C46.2358 94.214 44.5093 93.0343 42.6766 93.4004C40.8764 93.7609 39.7035 95.5143 40.0628 97.3201L43.3965 113.986C43.6431 115.213 44.5494 116.193 45.7503 116.54L69.084 123.206C69.3842 123.293 69.6911 123.332 69.9969 123.332C70.7101 123.332 71.4166 123.099 71.9969 122.659C72.8307 122.033 73.3239 121.046 73.3239 120L73.3228 36.6655C73.3228 34.8251 71.8295 33.3318 69.9891 33.3318L29.9891 33.3318C28.1487 33.3318 26.6554 34.8251 26.6554 36.6655C26.6565 38.5059 28.1498 39.9992 29.9891 39.9992L29.9897 40Z" id="Shape" fill="#005581" fill-rule="evenodd" stroke="none" />
      </g>
    </g>
  </g>
</svg>