<?xml version="1.0" encoding="utf-8"?>
<svg width="200px" height="193px" viewBox="0 0 200 193" version="1.1" xmlns:xlink="http://www.w3.org/1999/xlink" xmlns="http://www.w3.org/2000/svg">
  <defs>
    <path d="M0 0L200 0L200 160L0 160L0 0Z" id="path_1" />
    <clipPath id="mask_1">
      <use xlink:href="#path_1" />
    </clipPath>
  </defs>
  <g id="node-logo">
    <g id="NodeJs" transform="translate(50.17151 167)">
      <path d="M40.751 14.9229Q40.751 12.2051 41.9702 10.5938Q43.1895 8.98242 45.3057 8.98242Q47.0029 8.98242 48.1094 10.25L48.1094 4.32031L51.2246 4.32031L51.2246 20.8203L48.4209 20.8203L48.2705 19.585Q47.1104 21.0352 45.2842 21.0352Q43.2324 21.0352 41.9917 19.4185Q40.751 17.8018 40.751 14.9229ZM22.9619 20.8203L26.1846 20.8203L26.1846 5.17969L22.9727 5.17969L22.9727 15.4922L16.6885 5.17969L13.4658 5.17969L13.4658 20.8203L16.6885 20.8203L16.6885 10.5293L22.9619 20.8203ZM72.0322 5.17969L75.2549 5.17969L75.2549 16.0078Q75.2549 17.501 74.5942 18.645Q73.9336 19.7891 72.7305 20.4121Q71.5273 21.0352 70.0127 21.0352Q67.5313 21.0352 66.1455 19.7729Q64.7598 18.5107 64.7598 16.2012L68.0039 16.2012Q68.0039 17.3506 68.4873 17.8984Q68.9707 18.4463 70.0127 18.4463Q70.9365 18.4463 71.4844 17.8125Q72.0322 17.1787 72.0322 16.0078L72.0322 5.17969ZM28.9775 11.8184Q28.3115 13.1719 28.3115 14.9014L28.3115 15.041Q28.3115 17.8125 29.8101 19.4238Q31.3086 21.0352 33.8223 21.0352Q36.3359 21.0352 37.8291 19.4185Q39.3223 17.8018 39.3223 15.127L39.3008 14.332Q39.1289 11.8613 37.6411 10.4219Q36.1533 8.98242 33.8008 8.98242Q32.1465 8.98242 30.895 9.72363Q29.6436 10.4648 28.9775 11.8184ZM54.8179 19.4668Q56.4238 21.0352 58.9805 21.0352Q60.4307 21.0352 61.623 20.4819Q62.8154 19.9287 63.5137 18.9404L61.9883 17.2324Q60.9785 18.5322 59.1846 18.5322Q58.0244 18.5322 57.2671 17.8447Q56.5098 17.1572 56.3594 16.0186L63.7607 16.0186L63.7607 14.751Q63.7607 11.9902 62.3911 10.4863Q61.0215 8.98242 58.6367 8.98242Q57.0469 8.98242 55.8062 9.729Q54.5654 10.4756 53.8887 11.856Q53.2119 13.2363 53.2119 14.9873L53.2119 15.2881Q53.2119 17.8984 54.8179 19.4668ZM83.5425 16.7114Q84.1064 17.0391 84.1064 17.6084Q84.1064 18.1563 83.6499 18.4946Q83.1934 18.833 82.3018 18.833Q81.3457 18.833 80.7764 18.3926Q80.207 17.9521 80.1641 17.125L77.2207 17.125Q77.2207 18.1777 77.8652 19.0854Q78.5098 19.9932 79.6431 20.5142Q80.7764 21.0352 82.2373 21.0352Q84.3965 21.0352 85.7607 20.0522Q87.125 19.0693 87.125 17.4795Q87.125 15.2559 84.665 14.3535Q83.8701 14.0635 82.71 13.8325Q81.5498 13.6016 81.061 13.2847Q80.5723 12.9678 80.5723 12.4521Q80.5723 11.9043 81.002 11.5498Q81.4316 11.1953 82.2158 11.1953Q83.1289 11.1953 83.5586 11.6304Q83.9883 12.0654 83.9883 12.7314L87.0928 12.7314Q87.0928 11.0664 85.7661 10.0244Q84.4395 8.98242 82.2266 8.98242Q80.1533 8.98242 78.8696 10.019Q77.5859 11.0557 77.5859 12.6025Q77.5859 15.2559 81.7324 16.126Q82.9785 16.3838 83.5425 16.7114ZM32.0391 17.6554Q31.416 16.7786 31.416 15.1217Q31.416 13.2605 32.0391 12.3729Q32.6621 11.4854 33.8008 11.4854Q34.9502 11.4854 35.584 12.3783Q36.2178 13.2712 36.2178 14.8958Q36.2178 16.8 35.584 17.6661Q34.9502 18.5322 33.8223 18.5322Q32.6621 18.5322 32.0391 17.6554ZM57.1274 12.1112Q57.7021 11.4854 58.626 11.4854Q59.6143 11.4854 60.1514 12.0518Q60.6885 12.6183 60.71 13.6541L60.71 13.9023L56.3916 13.9023Q56.5527 12.737 57.1274 12.1112ZM43.8555 15.154Q43.8555 16.7893 44.4248 17.6608Q44.9941 18.5322 46.0791 18.5322Q47.5186 18.5322 48.1094 17.3165L48.1094 12.7225Q47.5293 11.5068 46.1006 11.5068Q43.8555 11.5068 43.8555 15.154Z" />
    </g>
    <path d="M0 0L200 0L200 160L0 160L0 0Z" id="Background" fill="none" fill-rule="evenodd" stroke="none" />
    <g clip-path="url(#mask_1)">
      <path d="M98.8437 141.25C98.1875 141.25 97.5312 141.062 96.9375 140.75L90.9375 137.187C90.0312 136.687 90.4687 136.5 90.7812 136.406C91.9687 136 92.2187 135.906 93.5 135.156C93.625 135.094 93.8125 135.125 93.9375 135.188L98.5625 137.937C98.7187 138.031 98.9687 138.031 99.125 137.937L117.187 127.5C117.344 127.406 117.469 127.219 117.469 127L117.469 106.156C117.469 105.937 117.375 105.75 117.187 105.656L99.125 95.25C98.9687 95.1563 98.75 95.1563 98.5625 95.25L80.5 105.656C80.3125 105.75 80.2188 105.969 80.2188 106.156L80.2188 127C80.2188 127.188 80.3438 127.375 80.5 127.469L85.4375 130.313C88.125 131.656 89.7813 130.063 89.7813 128.5L89.7813 107.906C89.7813 107.625 90 107.375 90.3125 107.375L92.5938 107.375C92.875 107.375 93.125 107.594 93.125 107.906L93.125 128.5C93.125 132.094 91.1875 134.125 87.7813 134.125C86.75 134.125 85.9063 134.125 83.625 133L78.875 130.281C77.7188 129.594 76.9688 128.344 76.9688 127L76.9688 106.156C76.9688 104.813 77.6875 103.531 78.875 102.875L96.9375 92.4375C98.0938 91.7813 99.5938 91.7813 100.719 92.4375L118.781 102.875C119.938 103.563 120.688 104.813 120.688 106.156L120.688 127C120.688 128.344 119.969 129.625 118.781 130.281L100.719 140.719C100.188 141.063 99.5313 141.25 98.8438 141.25L98.8437 141.25ZM113.437 120.688C113.437 116.781 110.812 115.75 105.25 115C99.625 114.25 99.0625 113.875 99.0625 112.563C99.0625 111.469 99.5312 110.031 103.687 110.031C107.406 110.031 108.781 110.844 109.344 113.344C109.406 113.594 109.594 113.75 109.844 113.75L112.187 113.75C112.344 113.75 112.469 113.687 112.562 113.594C112.656 113.469 112.719 113.344 112.687 113.188C112.312 108.875 109.469 106.875 103.688 106.875C98.5313 106.875 95.4688 109.063 95.4688 112.688C95.4688 116.656 98.5313 117.719 103.469 118.219C109.375 118.813 109.844 119.656 109.844 120.813C109.844 122.844 108.219 123.688 104.406 123.688C99.625 123.688 98.5625 122.5 98.2188 120.125C98.1875 119.875 97.9688 119.688 97.6875 119.688L95.3438 119.688C95.0625 119.688 94.8125 119.906 94.8125 120.219C94.8125 123.25 96.4687 126.875 104.375 126.875C110.156 126.875 113.438 124.625 113.438 120.688L113.437 120.688ZM130.469 105.031C130.469 106.937 128.906 108.5 127 108.5C125.094 108.5 123.531 106.937 123.531 105.031C123.531 103.062 125.156 101.562 127 101.562C128.875 101.531 130.469 103.062 130.469 105.031L130.469 105.031ZM129.906 105.031C129.906 103.406 128.594 102.125 126.969 102.125C125.375 102.125 124.063 103.406 124.063 105.031C124.063 106.656 125.375 107.969 126.969 107.969C128.594 107.937 129.906 106.625 129.906 105.031L129.906 105.031ZM128.5 106.969L127.688 106.969C127.656 106.781 127.531 105.781 127.531 105.75C127.469 105.531 127.406 105.406 127.125 105.406L126.438 105.406L126.438 106.969L125.688 106.969L125.688 103.063L127.031 103.063C127.5 103.063 128.406 103.063 128.406 104.094C128.406 104.812 127.937 104.969 127.656 105.063C128.188 105.094 128.219 105.438 128.313 105.937C128.344 106.25 128.406 106.781 128.5 106.969L128.5 106.969ZM127.625 104.219C127.625 103.688 127.25 103.688 127.063 103.688L126.438 103.688L126.438 104.781L127.031 104.781C127.531 104.781 127.625 104.438 127.625 104.219L127.625 104.219ZM42.9063 59.6875C42.9063 58.8438 42.4688 58.0938 41.75 57.6875L22.5938 46.6563C22.2813 46.4688 21.9063 46.375 21.5313 46.3438L21.3438 46.3438C20.9688 46.3438 20.625 46.4688 20.2813 46.6563L1.15625 57.6875C0.4375 58.0938 0 58.875 0 59.6875L0.03125 89.375C0.03125 89.7813 0.25 90.1563 0.59375 90.375C0.9375 90.5938 1.375 90.5938 1.75 90.375L13.125 83.8438C13.8438 83.4063 14.2813 82.6563 14.2813 81.8438L14.2813 67.9688C14.2813 67.1563 14.7188 66.375 15.4375 65.9688L20.2813 63.1875C20.6563 62.9688 21.0313 62.875 21.4375 62.875C21.8438 62.875 22.25 62.9688 22.5937 63.1875L27.4375 65.9688C28.1563 66.375 28.5937 67.1563 28.5937 67.9688L28.5937 81.8438C28.5937 82.6563 29.0312 83.4375 29.75 83.8438L41.125 90.375C41.4688 90.5938 41.9375 90.5938 42.2812 90.375C42.625 90.1875 42.8437 89.7813 42.8437 89.375L42.9062 59.6875L42.9063 59.6875ZM147.656 27.2813L147.656 82.4063C147.656 83.2188 147.219 84.0001 146.5 84.4063L127.344 95.4688C126.625 95.8751 125.75 95.8751 125.031 95.4688L105.875 84.4063C105.156 84.0001 104.719 83.2188 104.719 82.4063L104.719 60.2813C104.719 59.4688 105.156 58.6876 105.875 58.2813L125.031 47.2188C125.75 46.8126 126.625 46.8126 127.344 47.2188L132.125 49.9688C132.656 50.2813 133.344 49.8751 133.344 49.2813L133.344 19.9064C133.344 19.0314 134.281 18.4689 135.063 18.9064L146.469 25.2813C147.187 25.6563 147.656 26.4376 147.656 27.2813L147.656 27.2813ZM133.281 67.5625C133.281 67.3438 133.156 67.1563 133 67.0625L126.437 63.25C126.25 63.1563 126.031 63.1563 125.844 63.25L119.281 67.0625C119.094 67.1563 119 67.3438 119 67.5625L119 75.1563C119 75.375 119.125 75.5625 119.281 75.6563L125.844 79.4375C126.031 79.5313 126.25 79.5313 126.406 79.4375L132.969 75.6563C133.156 75.5625 133.25 75.375 133.25 75.1563L133.25 67.5625L133.281 67.5625ZM198.844 67.3438C199.563 66.9375 200 66.1563 200 65.3438L200 60C200 59.1875 199.563 58.4062 198.844 58L179.813 46.9375C179.094 46.5313 178.219 46.5313 177.5 46.9375L158.344 58C157.625 58.4063 157.188 59.1875 157.188 60L157.188 82.125C157.188 82.9688 157.625 83.7188 158.344 84.125L177.375 94.9688C178.063 95.375 178.938 95.375 179.656 94.9688L191.156 88.5625C191.938 88.125 191.938 87 191.156 86.5625L171.875 75.5C171.5 75.2813 171.281 74.9063 171.281 74.5L171.281 67.5625C171.281 67.1563 171.5 66.7813 171.875 66.5625L177.875 63.0938C178.219 62.875 178.688 62.875 179.031 63.0938L185.031 66.5625C185.375 66.7813 185.625 67.1563 185.625 67.5625L185.625 73C185.625 73.875 186.594 74.4375 187.375 74L198.844 67.3438L198.844 67.3438ZM174.688 68.4375C174.563 68.5313 174.469 68.6563 174.469 68.8125L174.469 73.0625C174.469 73.2188 174.563 73.375 174.688 73.4375L178.375 75.5625C178.5 75.6563 178.688 75.6563 178.813 75.5625L182.5 73.4375C182.625 73.3438 182.719 73.2188 182.719 73.0625L182.719 68.8125C182.719 68.6563 182.625 68.5 182.5 68.4375L178.813 66.3125C178.688 66.2188 178.5 66.2188 178.375 66.3125L174.688 68.4375L174.688 68.4375ZM95.25 82.0314L95.25 60.0315C95.25 59.2189 94.75 58.4377 94.0313 58.0315L74.9375 47.0315C74.2813 46.6565 73.375 46.594 72.625 47.0315L53.5313 58.0315C52.8125 58.4377 52.3125 59.1877 52.3125 60.0315L52.3125 82.0314C52.3125 82.9064 52.9063 83.6564 53.5625 84.0314L72.6875 95.0314C73.4375 95.4689 74.3125 95.4377 75 95.0314L94.0625 84.0314C94.625 83.7189 95.0313 83.1877 95.1875 82.5627C95.2188 82.4064 95.25 82.2189 95.25 82.0314L95.25 82.0314ZM72.0313 43L71.7813 43.3125L72.125 43.3125L72.0313 43L72.0313 43ZM96.0313 83.7118L95.7188 83.4688L95.7188 83.7813L96.0313 83.7118L96.0313 83.7118Z" id="Shape" fill="#005581" fill-rule="evenodd" stroke="none" />
    </g>
  </g>
</svg>