<?xml version="1.0" encoding="utf-8"?>
<svg width="200px" height="200.00562px" viewBox="0 0 200 200.00562" version="1.1" xmlns:xlink="http://www.w3.org/1999/xlink" xmlns="http://www.w3.org/2000/svg">
  <defs>
    <path d="M0 0L200 0L200 200L0 200L0 0Z" id="path_1" />
    <clipPath id="mask_1">
      <use xlink:href="#path_1" />
    </clipPath>
  </defs>
  <g id="react-logo">
    <g id="ReactJs" transform="translate(50.39148 173.00562)">
      <path d="M17.0698 15.0947L14.5024 15.0947L14.5024 20.8203L11.2798 20.8203L11.2798 5.17969L17.0913 5.17969Q19.8628 5.17969 21.3667 6.41504Q22.8706 7.65039 22.8706 9.90625Q22.8706 11.5068 22.1777 12.5757Q21.4849 13.6445 20.0776 14.2783L23.4614 20.6699L23.4614 20.8203L20.0024 20.8203L17.0698 15.0947ZM74.2183 5.17969L77.4409 5.17969L77.4409 16.0078Q77.4409 17.501 76.7803 18.645Q76.1196 19.7891 74.9165 20.4121Q73.7134 21.0352 72.1987 21.0352Q69.7173 21.0352 68.3315 19.7729Q66.9458 18.5107 66.9458 16.2012L70.1899 16.2012Q70.1899 17.3506 70.6733 17.8984Q71.1567 18.4463 72.1987 18.4463Q73.1226 18.4463 73.6704 17.8125Q74.2183 17.1787 74.2183 16.0078L74.2183 5.17969ZM63.9917 9.19727L63.9917 6.33984L60.8872 6.33984L60.8872 9.19727L59.1899 9.19727L59.1899 11.4746L60.8872 11.4746L60.8872 17.7373Q60.9517 21.0352 64.2173 21.0352Q65.1841 21.0352 66.0972 20.7559L66.0972 18.4033Q65.6997 18.4785 65.1841 18.4785Q64.4858 18.4785 64.2388 18.1992Q63.9917 17.9199 63.9917 17.2754L63.9917 11.4746L65.979 11.4746L65.979 9.19727L63.9917 9.19727ZM14.5024 12.4844L17.1021 12.4844Q18.3159 12.4844 18.9819 11.8667Q19.6479 11.249 19.6479 10.1641Q19.6479 9.05762 19.0195 8.42383Q18.3911 7.79004 17.0913 7.79004L14.5024 7.79004L14.5024 12.4844ZM30.4653 21.0352Q27.9087 21.0352 26.3027 19.4668Q24.6968 17.8984 24.6968 15.2881L24.6968 14.9873Q24.6968 13.2363 25.3735 11.856Q26.0503 10.4756 27.291 9.729Q28.5317 8.98242 30.1216 8.98242Q32.5063 8.98242 33.876 10.4863Q35.2456 11.9902 35.2456 14.751L35.2456 16.0186L27.8442 16.0186Q27.9946 17.1572 28.752 17.8447Q29.5093 18.5322 30.6694 18.5322Q32.4634 18.5322 33.4731 17.2324L34.9985 18.9404Q34.3003 19.9287 33.1079 20.4819Q31.9155 21.0352 30.4653 21.0352ZM43.4312 19.7783Q43.5278 20.4014 43.7427 20.8203L46.8794 20.8203L46.8794 20.6377Q46.4282 19.7891 46.4175 18.1348L46.4175 13.0967Q46.4175 11.1416 45.1553 10.062Q43.8931 8.98242 41.7446 8.98242Q40.3267 8.98242 39.188 9.47119Q38.0493 9.95996 37.4263 10.8193Q36.8032 11.6787 36.8032 12.6885L39.9077 12.6885Q39.9077 12.0332 40.3535 11.6572Q40.7993 11.2813 41.5835 11.2813Q42.4751 11.2813 42.8887 11.7646Q43.3022 12.248 43.3022 13.0537L43.3022 13.7197L41.8735 13.7197Q39.2847 13.7305 37.915 14.7188Q36.5454 15.707 36.5454 17.5547Q36.5454 19.0586 37.668 20.0469Q38.7905 21.0352 40.4985 21.0352Q42.3032 21.0352 43.4312 19.7783ZM53.6362 18.5322Q54.4956 18.5322 55.0327 18.0596Q55.5698 17.5869 55.5913 16.8027L58.5024 16.8027Q58.4917 17.9844 57.8579 18.9673Q57.2241 19.9502 56.123 20.4927Q55.022 21.0352 53.6899 21.0352Q51.1978 21.0352 49.7583 19.4507Q48.3188 17.8662 48.3188 15.0732L48.3188 14.8691Q48.3188 12.1836 49.7476 10.583Q51.1763 8.98242 53.6685 8.98242Q55.8491 8.98242 57.165 10.2231Q58.481 11.4639 58.5024 13.5264L55.5913 13.5264Q55.5698 12.6193 55.0327 12.0523Q54.4956 11.4854 53.6147 11.4854Q52.5298 11.4854 51.9766 12.2761Q51.4233 13.0668 51.4233 14.8419L51.4233 15.1647Q51.4233 16.9615 51.9712 17.7469Q52.519 18.5322 53.6362 18.5322ZM85.7285 16.7114Q86.2925 17.0391 86.2925 17.6084Q86.2925 18.1563 85.8359 18.4946Q85.3794 18.833 84.4878 18.833Q83.5317 18.833 82.9624 18.3926Q82.3931 17.9521 82.3501 17.125L79.4067 17.125Q79.4067 18.1777 80.0513 19.0854Q80.6958 19.9932 81.8291 20.5142Q82.9624 21.0352 84.4233 21.0352Q86.5825 21.0352 87.9468 20.0522Q89.311 19.0693 89.311 17.4795Q89.311 15.2559 86.8511 14.3535Q86.0562 14.0635 84.896 13.8325Q83.7358 13.6016 83.2471 13.2847Q82.7583 12.9678 82.7583 12.4521Q82.7583 11.9043 83.188 11.5498Q83.6177 11.1953 84.4019 11.1953Q85.3149 11.1953 85.7446 11.6304Q86.1743 12.0654 86.1743 12.7314L89.2788 12.7314Q89.2788 11.0664 87.9521 10.0244Q86.6255 8.98242 84.4126 8.98242Q82.3394 8.98242 81.0557 10.019Q79.772 11.0557 79.772 12.6025Q79.772 15.2559 83.9185 16.126Q85.1646 16.3838 85.7285 16.7114ZM30.1108 11.4854Q29.187 11.4854 28.6123 12.1112Q28.0376 12.737 27.8765 13.9023L32.1948 13.9023L32.1948 13.6541Q32.1733 12.6183 31.6362 12.0518Q31.0991 11.4854 30.1108 11.4854ZM42.4429 18.355Q41.8628 18.6611 41.1753 18.6611Q40.4663 18.6611 40.0581 18.2852Q39.6499 17.9092 39.6499 17.3291L39.6606 17.1465Q39.811 15.5352 42.1421 15.5352L43.3022 15.5352L43.3022 17.5332Q43.0229 18.0488 42.4429 18.355Z" />
    </g>
    <path d="M0 0L200 0L200 200L0 200L0 0Z" id="Background" fill="none" fill-rule="evenodd" stroke="none" />
    <g clip-path="url(#mask_1)">
      <g id="Group" transform="translate(30 14.999268)">
        <path d="M55 65.0007C55 73.2553 61.7454 80.0007 70 80.0007C78.2546 80.0007 85 73.2553 85 65.0007C85 56.7462 78.2546 50.0007 70 50.0007C61.7454 50.0007 55 56.7462 55 65.0007L55 65.0007ZM60.0045 65.0008C60.0045 59.4517 64.4508 55.0054 69.9999 55.0054C75.5491 55.0054 79.9954 59.4517 79.9954 65.0008C79.9954 70.5488 75.5491 74.9908 69.9999 74.9908C64.4508 74.9908 60.0045 70.5499 60.0045 65.0008L60.0045 65.0008Z" id="Shape" fill="#005581" fill-rule="evenodd" stroke="none" />
        <path d="M0 65.0007C0 69.6279 2.32589 73.9002 6.06914 77.5053C9.81257 81.1113 15.0146 84.1862 21.328 86.7587C33.954 91.9027 51.0851 95.001 69.9994 95.001C88.9137 95.001 106.045 91.9027 118.671 86.7587C124.985 84.1862 130.187 81.1113 133.93 77.5053C137.673 73.8993 139.999 69.627 139.999 65.0007C139.999 60.3736 137.673 56.0967 133.93 52.4907C130.186 48.8847 124.984 45.8099 118.671 43.2373C106.045 38.0933 88.9137 35.0007 69.9994 35.0007C51.0851 35.0007 33.9537 38.0944 21.328 43.2373C15.0143 45.8099 9.81229 48.8847 6.06915 52.4907C2.32572 56.0967 4.35965e-06 60.3736 4.35965e-06 65.0007L0 65.0007ZM5.00452 65.0008C5.00452 62.0342 6.45875 59.0722 9.54595 56.0991C12.6331 53.1259 17.3159 50.2799 23.218 47.8771C35.0205 43.0691 51.6377 40.0054 70.0008 40.0054C88.364 40.0054 104.981 43.0679 116.784 47.8771C122.685 50.2811 127.369 53.1259 130.456 56.0991C133.543 59.0722 134.997 62.0342 134.997 65.0008C134.997 67.9674 133.543 70.9237 130.456 73.8971C127.369 76.8702 122.686 79.7208 116.784 82.1248C104.981 86.9328 88.364 89.9908 70.0008 89.9908C51.6377 89.9908 35.0208 86.9328 23.218 82.1248C17.3162 79.7208 12.6331 76.8702 9.54595 73.8971C6.4588 70.924 5.00452 67.9662 5.00452 65.0008L5.00452 65.0008Z" id="Shape" fill="#005581" fill-rule="evenodd" stroke="none" />
        <path d="M106.489 128.144C110.519 125.819 112.995 121.569 114.151 116.403C115.308 111.236 115.246 105.023 114.171 98.0542C112.024 84.1179 105.765 67.1256 95.9026 50.0599C86.0398 32.9951 74.4383 19.0828 63.4312 10.2571C57.9266 5.84421 52.5718 2.6845 47.5149 1.10079C42.458 -0.482929 37.5349 -0.465072 33.5049 1.8597C29.4749 4.18447 27.0026 8.43227 25.8463 13.5986C24.6912 18.7648 24.7515 24.978 25.8262 31.9468C27.9736 45.8831 34.2325 62.8754 44.0951 79.9411C53.958 97.006 65.5594 110.918 76.5665 119.741C82.0711 124.154 87.426 127.314 92.4828 128.897C97.5397 130.481 102.458 130.465 106.489 128.142L106.489 128.144ZM103.982 123.806C101.457 125.263 98.1627 125.434 93.9742 124.122C89.7856 122.811 84.8681 119.989 79.6996 115.845C69.3636 107.559 58.0287 94.0497 48.4282 77.4426C38.8287 60.8331 32.7853 44.274 30.7696 31.1883C29.7618 24.646 29.774 18.9806 30.7316 14.7006C31.6892 10.4206 33.485 7.656 36.0096 6.20057C38.5342 4.7452 41.8288 4.57334 46.0173 5.88471C50.2059 7.19608 55.1279 10.0153 60.2965 14.1593C70.6325 22.4461 81.9628 35.9573 91.5622 52.5679C101.162 69.1773 107.208 85.7336 109.225 98.8193C110.233 105.363 110.216 111.03 109.259 115.309C108.301 119.589 106.505 122.354 103.981 123.809L103.982 123.806Z" id="Shape" fill="#005581" fill-rule="evenodd" stroke="none" />
        <path d="M33.5114 128.144C29.4814 125.819 27.0048 121.569 25.8485 116.401C24.6934 111.235 24.7514 105.025 25.8262 98.0576C27.9735 84.1201 34.2348 67.1233 44.0974 50.0576C53.9602 32.9927 65.5616 19.0804 76.5688 10.2547C82.0733 5.84184 87.4259 2.6867 92.4828 1.10298C97.5396 -0.480731 102.463 -0.462874 106.494 1.8619C110.524 4.18667 112.997 8.43447 114.152 13.6019C115.308 18.7682 115.25 24.9779 114.175 31.9456C112.028 45.8819 105.769 62.8742 95.906 79.9399C86.0431 97.0048 74.4394 110.92 63.4317 119.746C57.9271 124.158 52.5734 127.315 47.5177 128.897C42.4608 130.481 37.5422 130.465 33.5119 128.142L33.5114 128.144ZM36.0181 123.806C38.5426 125.262 41.8349 125.438 46.0238 124.127C50.2135 122.815 55.1332 119.99 60.3018 115.846C70.6389 107.559 81.9727 94.0498 91.5732 77.4398C101.173 60.8304 107.214 44.2741 109.23 31.1884C110.237 24.645 110.227 18.9752 109.27 14.695C108.312 10.415 106.516 7.65038 103.992 6.19495C101.467 4.73958 98.1726 4.56773 93.984 5.8791C89.7943 7.19047 84.8703 10.0142 79.7028 14.1582C69.3657 22.4451 58.0388 35.9517 48.44 52.5611C38.8406 69.1705 32.7926 85.7297 30.7771 98.8154C29.7693 105.359 29.7838 111.03 30.7414 115.311C31.699 119.591 33.4981 122.351 36.0214 123.807L36.0181 123.806Z" id="Shape" fill="#005581" fill-rule="evenodd" stroke="none" />
      </g>
    </g>
  </g>
</svg>