<?xml version="1.0" encoding="utf-8"?>
<svg width="200px" height="183.00024px" viewBox="0 0 200 183.00024" version="1.1" xmlns:xlink="http://www.w3.org/1999/xlink" xmlns="http://www.w3.org/2000/svg">
  <defs>
    <path d="M0 0L200 0L200 160L0 160L0 0Z" id="path_1" />
    <clipPath id="mask_1">
      <use xlink:href="#path_1" />
    </clipPath>
  </defs>
  <g id="sass-logo">
    <g id="SASS" transform="translate(42.155518 157.00024)">
      <path d="M31.1743 15.3149Q31.8188 15.8037 31.8188 16.7168Q31.8188 17.5547 31.1743 18.022Q30.5298 18.4893 29.3804 18.4893Q26.2866 18.4893 26.2866 15.9004L23.0532 15.9004Q23.0532 17.415 23.832 18.5645Q24.6108 19.7139 26.0933 20.3745Q27.5757 21.0352 29.3804 21.0352Q31.98 21.0352 33.5161 19.8804Q35.0522 18.7256 35.0522 16.6953Q35.0522 14.8691 33.7954 13.6445Q32.5386 12.4199 29.7886 11.5928Q28.2954 11.1416 27.5273 10.626Q26.7593 10.1104 26.7593 9.34766Q26.7593 8.53125 27.4146 8.03174Q28.0698 7.53223 29.2515 7.53223Q30.4761 7.53223 31.1528 8.12842Q31.8296 8.72461 31.8296 9.79883L35.0522 9.79883Q35.0522 8.3916 34.3271 7.28516Q33.6021 6.17871 32.2915 5.57178Q30.981 4.96484 29.3052 4.96484Q27.6401 4.96484 26.3027 5.52344Q24.9653 6.08203 24.251 7.07568Q23.5366 8.06934 23.5366 9.33691Q23.5366 11.7754 26.2007 13.2148Q27.1782 13.7412 28.854 14.2837Q30.5298 14.8262 31.1743 15.3149ZM60.146 16.7168Q60.146 15.8037 59.5015 15.3149Q58.8569 14.8262 57.1812 14.2837Q55.5054 13.7412 54.5278 13.2148Q51.8638 11.7754 51.8638 9.33691Q51.8638 8.06934 52.5781 7.07568Q53.2925 6.08203 54.6299 5.52344Q55.9673 4.96484 57.6323 4.96484Q59.3081 4.96484 60.6187 5.57178Q61.9292 6.17871 62.6543 7.28516Q63.3794 8.3916 63.3794 9.79883L60.1567 9.79883Q60.1567 8.72461 59.48 8.12842Q58.8032 7.53223 57.5786 7.53223Q56.397 7.53223 55.7417 8.03174Q55.0864 8.53125 55.0864 9.34766Q55.0864 10.1104 55.8545 10.626Q56.6226 11.1416 58.1157 11.5928Q60.8657 12.4199 62.1226 13.6445Q63.3794 14.8691 63.3794 16.6953Q63.3794 18.7256 61.8433 19.8804Q60.3071 21.0352 57.7075 21.0352Q55.9028 21.0352 54.4204 20.3745Q52.938 19.7139 52.1592 18.5645Q51.3804 17.415 51.3804 15.9004L54.6138 15.9004Q54.6138 18.4893 57.7075 18.4893Q58.8569 18.4893 59.5015 18.022Q60.146 17.5547 60.146 16.7168ZM73.0259 15.3149Q73.6704 15.8037 73.6704 16.7168Q73.6704 17.5547 73.0259 18.022Q72.3813 18.4893 71.2319 18.4893Q68.1382 18.4893 68.1382 15.9004L64.9048 15.9004Q64.9048 17.415 65.6836 18.5645Q66.4624 19.7139 67.9448 20.3745Q69.4272 21.0352 71.2319 21.0352Q73.8315 21.0352 75.3677 19.8804Q76.9038 18.7256 76.9038 16.6953Q76.9038 14.8691 75.647 13.6445Q74.3901 12.4199 71.6401 11.5928Q70.147 11.1416 69.3789 10.626Q68.6108 10.1104 68.6108 9.34766Q68.6108 8.53125 69.2661 8.03174Q69.9214 7.53223 71.103 7.53223Q72.3276 7.53223 73.0044 8.12842Q73.6812 8.72461 73.6812 9.79883L76.9038 9.79883Q76.9038 8.3916 76.1787 7.28516Q75.4536 6.17871 74.1431 5.57178Q72.8325 4.96484 71.1567 4.96484Q69.4917 4.96484 68.1543 5.52344Q66.8169 6.08203 66.1025 7.07568Q65.3882 8.06934 65.3882 9.33691Q65.3882 11.7754 68.0522 13.2148Q69.0298 13.7412 70.7056 14.2837Q72.3813 14.8262 73.0259 15.3149ZM40.4126 17.5977L46.063 17.5977L47.1479 20.8203L50.5747 20.8203L44.7202 5.17969L41.7339 5.17969L35.9116 20.8203L39.3384 20.8203L40.4126 17.5977ZM45.1929 14.9873L41.2827 14.9873L43.2271 9.13281L45.1929 14.9873Z" />
    </g>
    <path d="M0 0L200 0L200 160L0 160L0 0Z" id="Background" fill="none" fill-rule="evenodd" stroke="none" />
    <g clip-path="url(#mask_1)">
      <path d="M94.5292 118.412C94.2586 118.704 93.9879 118.938 94.5292 118.412L94.5292 118.412ZM172.178 91.2249C165.893 91.2229 159.691 92.6663 154.053 95.4437C152.209 91.7249 150.303 88.4749 149.99 86.0374C149.615 83.1937 149.209 81.5061 149.647 78.1311C150.084 74.7561 152.053 69.9749 152.022 69.6311C151.99 69.2874 151.584 67.5686 147.553 67.5374C143.522 67.5062 140.053 68.3186 139.65 69.3811C138.938 71.3229 138.384 73.319 137.994 75.3499C137.275 79.0061 129.934 92.0686 125.778 98.8811C124.403 96.2249 123.247 93.8811 122.997 92.0061C122.622 89.1624 122.215 87.4749 122.653 84.0999C123.09 80.7249 125.059 75.9437 125.028 75.5999C124.997 75.2562 124.59 73.5374 120.562 73.5062C116.534 73.4749 113.062 74.2874 112.656 75.3499C112.25 76.4124 111.812 78.9124 111 81.3187C110.187 83.7249 100.409 105.475 97.8499 111.131C96.5374 114.006 95.4124 116.319 94.5999 117.881C94.4749 118.131 94.3811 118.287 94.3186 118.412C94.4124 118.256 94.4749 118.1 94.4749 118.162C93.7874 119.506 93.3811 120.256 93.3811 120.256L93.3811 120.287C92.8499 121.287 92.2561 122.194 91.9749 122.194C91.7874 122.194 91.3811 119.569 92.0686 115.975C93.5374 108.412 97.0061 96.6624 96.9749 96.2562C96.9436 96.0374 97.6311 94.0062 94.6936 92.9124C91.8499 91.8812 90.8186 93.5999 90.5686 93.5999C90.3186 93.5999 90.1311 94.2249 90.1311 94.2249C90.1311 94.2249 93.2874 80.9749 84.0718 80.9749C78.3218 80.9749 70.3218 87.2874 66.3905 93.0062C63.9217 94.3499 58.578 97.2562 52.953 100.35C50.7967 101.537 48.578 102.756 46.4842 103.912C46.328 103.756 46.203 103.6 46.0467 103.444C34.8624 91.5062 14.2124 83.0687 15.0874 67.0374C15.3999 61.1937 17.4311 45.8499 54.7967 27.2249C85.4218 11.9749 109.906 16.1624 114.122 25.4749C120.184 38.7562 101.031 63.4749 69.228 67.0374C57.1061 68.3812 50.7342 63.6937 49.1405 61.9437C47.4842 60.0999 47.2342 60.0062 46.6092 60.3499C45.578 60.9124 46.2342 62.5374 46.6092 63.5062C47.5467 65.9749 51.453 70.3499 58.1061 72.5374C63.9499 74.4437 78.1624 75.5062 95.3468 68.8499C114.653 61.4124 129.681 40.6937 125.275 23.3499C120.787 5.7249 91.5624 -0.056355 63.928 9.75615C47.4624 15.5999 29.6561 24.7874 16.8467 36.7561C1.63111 51.0061 -0.803263 63.4124 0.196737 68.5999C3.75611 87.0061 29.1249 99.0061 39.278 107.881C38.778 108.162 38.3092 108.412 37.8717 108.662C32.7811 111.194 13.4405 121.319 8.59986 132.006C3.13111 144.131 9.50611 152.819 13.6905 154.006C26.7499 157.631 40.1217 151.1 47.3061 140.381C54.4905 129.662 53.6186 115.662 50.3061 109.287C50.2749 109.194 50.2124 109.131 50.1811 109.037C51.4936 108.256 52.8374 107.475 54.1811 106.694C56.7717 105.162 59.303 103.756 61.5217 102.537C60.2717 105.912 59.3655 109.975 58.8967 115.85C58.3342 122.725 61.178 131.631 64.8655 135.131C66.4905 136.662 68.4561 136.694 69.6749 136.694C73.9874 136.694 75.9249 133.131 78.078 128.881C80.7343 123.694 83.078 117.662 83.078 117.662C83.078 117.662 80.1405 133.975 88.1717 133.975C91.1061 133.975 94.0436 130.194 95.3593 128.256L95.3593 128.287C95.3593 128.287 95.4218 128.162 95.578 127.912C95.8905 127.444 96.0468 127.162 96.0468 127.162L96.0468 127.069C97.2342 125.037 99.828 120.381 103.731 112.694C108.794 102.756 113.634 90.3499 113.634 90.3499C114.102 93.0771 114.749 95.7705 115.572 98.4124C116.447 101.381 118.291 104.631 119.759 107.787C118.572 109.412 117.853 110.35 117.853 110.35C117.855 110.374 117.866 110.396 117.884 110.412C116.947 111.662 115.884 113.006 114.791 114.319C110.794 119.069 106.041 124.506 105.416 126.069C104.666 127.912 104.853 129.287 106.291 130.35C107.353 131.162 109.228 131.287 111.194 131.131C114.787 130.881 117.319 130.006 118.537 129.444C120.784 128.638 122.908 127.523 124.847 126.131C128.753 123.256 131.128 119.131 130.909 113.694C130.784 110.694 129.816 107.694 128.628 104.881C128.972 104.381 129.347 103.85 129.691 103.319C135.875 94.2874 140.656 84.3749 140.656 84.3749C141.124 87.1021 141.771 89.7955 142.594 92.4374C143.344 94.9687 144.809 97.7499 146.153 100.469C140.344 105.187 136.75 110.656 135.5 114.25C133.187 120.906 135 123.906 138.406 124.594C139.937 124.906 142.125 124.187 143.75 123.5C146.163 122.696 148.439 121.526 150.497 120.031C154.403 117.156 158.181 113.125 157.931 107.656C157.837 105.187 157.15 102.719 156.244 100.344C161.15 98.2811 167.522 97.1561 175.647 98.0936C193.047 100.125 196.453 111 195.797 115.531C195.14 120.062 191.484 122.594 190.266 123.344C189.047 124.094 188.672 124.375 188.766 124.937C188.922 125.75 189.484 125.719 190.516 125.531C191.953 125.281 199.637 121.844 199.981 113.437C200.481 102.812 190.266 91.1249 172.169 91.2186L172.178 91.2249ZM38.0593 136.444C32.3124 142.725 24.2499 145.1 20.7843 143.1C17.0655 140.937 18.5343 131.694 25.6249 125C29.9374 120.937 35.4968 117.187 39.1843 114.875C40.028 114.375 41.2468 113.625 42.7468 112.719C42.9968 112.562 43.1218 112.5 43.1218 112.5C43.403 112.312 43.7155 112.156 44.028 111.969C46.6186 121.469 44.1218 129.844 38.0593 136.437L38.0593 136.444ZM80.0467 107.881C78.0467 112.787 73.8311 125.287 71.2686 124.631C69.0811 124.069 67.7373 114.537 70.8311 105.162C72.3936 100.444 75.7061 94.8186 77.6748 92.6311C80.8279 89.0999 84.2967 87.9749 85.1092 89.3811C86.2029 91.2249 81.2967 104.819 80.0467 107.881L80.0467 107.881ZM114.734 124.444C113.89 124.881 113.109 125.162 112.734 124.944C112.453 124.787 113.078 124.194 113.078 124.194C113.078 124.194 117.422 119.537 119.14 117.412C120.14 116.162 121.297 114.694 122.544 113.069C122.544 113.225 122.575 113.381 122.575 113.569C122.534 119.162 117.162 122.944 114.725 124.444L114.734 124.444ZM141.478 118.35C140.853 117.912 140.947 116.444 143.04 111.881C143.853 110.1 145.725 107.1 148.978 104.225C149.346 105.313 149.546 106.451 149.572 107.6C149.54 114.631 144.509 117.256 141.481 118.35L141.478 118.35Z" id="Shape" fill="#005581" fill-rule="evenodd" stroke="none" />
    </g>
  </g>
</svg>